<svg width="60" height="60" viewBox="0 0 60 60" fill="none" xmlns="http://www.w3.org/2000/svg">
<path d="M58.42 31.8998C57.8818 30.9878 57.0076 30.3232 55.985 30.0483C54.9624 29.7735 53.8728 29.9105 52.95 30.4298L42.91 36.2298C42.7545 35.3675 42.3144 34.5823 41.66 33.9998C40.9211 33.3531 39.9719 32.9976 38.99 32.9998H29.83C29.6977 32.9992 29.5668 32.9724 29.4449 32.9209C29.3231 32.8694 29.2126 32.7942 29.12 32.6998L28.88 32.4598C27.9411 31.5278 26.6729 31.0033 25.35 30.9998H21.32C20.1364 30.9966 18.9639 31.2284 17.8705 31.6815C16.7771 32.1347 15.7844 32.8003 14.95 33.6398L11.01 37.5898L10.71 37.2898C10.5193 37.1056 10.2651 37.0017 10 36.9998C9.86769 37.0003 9.73681 37.0271 9.61493 37.0786C9.49306 37.1301 9.38261 37.2053 9.29 37.2998L7.01 39.5898L6.71 39.2898C6.61038 39.1913 6.49136 39.1147 6.36052 39.0648C6.22968 39.0148 6.08987 38.9927 5.95 38.9998C5.81124 39.0049 5.67518 39.0396 5.55098 39.1017C5.42678 39.1638 5.31734 39.2518 5.23 39.3598L0.230002 45.3598C0.0809207 45.5397 -0.000454603 45.7661 1.91036e-06 45.9998V58.9998C1.91036e-06 59.265 0.105359 59.5193 0.292895 59.7069C0.480431 59.8944 0.734785 59.9998 1 59.9998H17C17.2651 59.9978 17.5193 59.894 17.71 59.7098L21.71 55.7098C21.8973 55.5209 22.0025 55.2657 22.0025 54.9998C22.0025 54.7338 21.8973 54.4786 21.71 54.2898L21.41 53.9898L23.7 51.7098C23.7944 51.6175 23.8696 51.5074 23.9212 51.3859C23.9728 51.2644 23.9999 51.1339 24.0008 51.0018C24.0017 50.8698 23.9765 50.7389 23.9266 50.6167C23.8767 50.4945 23.8031 50.3834 23.71 50.2898L23.42 50.0098L25.54 47.8798C25.8168 47.5991 26.147 47.3767 26.5111 47.2256C26.8752 47.0745 27.2658 46.9977 27.66 46.9998H38.93C39.8083 47.0045 40.6718 46.7731 41.43 46.3298L56.95 37.3698C57.8675 36.8367 58.537 35.9625 58.8123 34.9377C59.0877 33.913 58.9467 32.8209 58.42 31.8998ZM16.59 57.9998H2V46.3598L6.07 41.4798L19.59 54.9998L16.59 57.9998ZM19.99 52.5798L8.42 41.0098L10 39.4198L21.3 50.7198H21.31L21.58 50.9998L19.99 52.5798ZM55.95 35.6298L40.42 44.5998C39.9678 44.8633 39.4534 45.0013 38.93 44.9998H27.66C27.0018 44.9969 26.3496 45.1254 25.7418 45.3778C25.1339 45.6302 24.5825 46.0015 24.12 46.4698L22.01 48.5898L12.42 39.0098L16.37 35.0498C17.0181 34.3972 17.7895 33.8799 18.6393 33.528C19.489 33.1761 20.4002 32.9965 21.32 32.9998H25.35C25.7424 33 26.1308 33.0779 26.4929 33.2289C26.8551 33.3799 27.1837 33.6011 27.46 33.8798L27.7 34.1198C27.9795 34.3996 28.3116 34.6214 28.6771 34.7724C29.0427 34.9235 29.4345 35.0007 29.83 34.9998H38.99C39.4827 34.9974 39.9593 35.1752 40.33 35.4998C40.7106 35.8266 40.9477 36.2898 40.99 36.7898C41.0272 37.0992 40.9824 37.4131 40.86 37.6998C40.7661 37.9676 40.6122 38.2105 40.41 38.4098C40.2257 38.5965 40.0062 38.7448 39.7641 38.8461C39.5221 38.9473 39.2624 38.9996 39 38.9998H32.42C32.1548 38.9998 31.9004 39.1051 31.7129 39.2926C31.5254 39.4802 31.42 39.7345 31.42 39.9998C31.42 40.265 31.5254 40.5193 31.7129 40.7069C31.9004 40.8944 32.1548 40.9998 32.42 40.9998H39C39.5254 41.0002 40.0458 40.8971 40.5314 40.6963C41.017 40.4955 41.4582 40.2011 41.83 39.8298C42.1514 39.5032 42.4152 39.1245 42.61 38.7098L53.95 32.1698C54.2395 32.0035 54.5661 31.9127 54.8999 31.9057C55.2336 31.8987 55.5638 31.9758 55.86 32.1298C56.2066 32.2951 56.4932 32.5642 56.68 32.8998C56.8585 33.2026 56.9518 33.5482 56.95 33.8998C56.9527 34.2511 56.8614 34.5968 56.6856 34.901C56.5098 35.2051 56.2558 35.4568 55.95 35.6298Z" fill="#39373A"/>
<path d="M51 4.76712e-06C49.1411 0.00184824 47.3286 0.579795 45.8117 1.65429C44.2949 2.72879 43.1484 4.24702 42.53 6H21C20.2051 6.00238 19.4434 6.31921 18.8813 6.88131C18.3192 7.4434 18.0024 8.20508 18 9V27C18.0024 27.7949 18.3192 28.5566 18.8813 29.1187C19.4434 29.6808 20.2051 29.9976 21 30H51C51.7949 29.9976 52.5566 29.6808 53.1187 29.1187C53.6808 28.5566 53.9976 27.7949 54 27V17.47C56.0014 16.764 57.6886 15.3728 58.763 13.5426C59.8374 11.7123 60.2297 9.561 59.8705 7.46931C59.5114 5.37762 58.4238 3.48043 56.8004 2.11344C55.177 0.746459 53.1223 -0.00217971 51 4.76712e-06ZM20 9C20 8.73479 20.1054 8.48043 20.2929 8.2929C20.4804 8.10536 20.7348 8 21 8H42.06C42.0198 8.33182 41.9998 8.66576 42 9C42.001 10.0232 42.1804 11.0384 42.53 12H20V9ZM20 14H43.52C44.0283 14.7562 44.6487 15.4306 45.36 16H20V14ZM52 27C52 27.2652 51.8946 27.5196 51.7071 27.7071C51.5196 27.8946 51.2652 28 51 28H21C20.7348 28 20.4804 27.8946 20.2929 27.7071C20.1054 27.5196 20 27.2652 20 27V18H51C51.3342 18.0002 51.6682 17.9802 52 17.94V27ZM51 16C49.6155 16 48.2622 15.5895 47.111 14.8203C45.9599 14.0511 45.0627 12.9579 44.5328 11.6788C44.003 10.3997 43.8644 8.99224 44.1345 7.63437C44.4046 6.2765 45.0713 5.02922 46.0503 4.05026C47.0292 3.07129 48.2765 2.4046 49.6344 2.13451C50.9922 1.86441 52.3997 2.00303 53.6788 2.53285C54.9579 3.06266 56.0511 3.95987 56.8203 5.11101C57.5895 6.26216 58 7.61553 58 9C57.9979 10.8559 57.2597 12.6351 55.9474 13.9474C54.6351 15.2597 52.8559 15.9979 51 16Z" fill="#39373A"/>
<path d="M48 8C49.1046 8 50 7.10457 50 6C50 4.89543 49.1046 4 48 4C46.8954 4 46 4.89543 46 6C46 7.10457 46.8954 8 48 8Z" fill="#39373A"/>
<path d="M54 14C55.1046 14 56 13.1046 56 12C56 10.8954 55.1046 10 54 10C52.8954 10 52 10.8954 52 12C52 13.1046 52.8954 14 54 14Z" fill="#39373A"/>
<path d="M46.293 13.7071C46.4806 13.8946 46.7349 13.9999 47 13.9999C47.2652 13.9999 47.5195 13.8946 47.707 13.7071L55.7071 5.70708C55.8026 5.61483 55.8787 5.50449 55.9312 5.38249C55.9836 5.26048 56.0112 5.12926 56.0123 4.99648C56.0135 4.8637 55.9882 4.73202 55.9379 4.60913C55.8876 4.48623 55.8133 4.37458 55.7195 4.28069C55.6256 4.18679 55.5139 4.11254 55.391 4.06226C55.2681 4.01198 55.1364 3.98668 55.0037 3.98783C54.8709 3.98898 54.7397 4.01657 54.6176 4.06898C54.4956 4.12139 54.3853 4.19757 54.2931 4.29308L46.293 12.2931C46.1056 12.4806 46.0002 12.7349 46.0002 13.0001C46.0002 13.2652 46.1056 13.5196 46.293 13.7071Z" fill="#39373A"/>
<path d="M35 22H25C24.7348 22 24.4804 22.1054 24.2929 22.2929C24.1054 22.4804 24 22.7348 24 23C24 23.2652 24.1054 23.5196 24.2929 23.7071C24.4804 23.8946 24.7348 24 25 24H35C35.2652 24 35.5196 23.8946 35.7071 23.7071C35.8946 23.5196 36 23.2652 36 23C36 22.7348 35.8946 22.4804 35.7071 22.2929C35.5196 22.1054 35.2652 22 35 22Z" fill="#39373A"/>
<path d="M47 24H41C40.7348 24 40.4804 23.8946 40.2929 23.7071C40.1054 23.5196 40 23.2652 40 23C40 22.7348 40.1054 22.4804 40.2929 22.2929C40.4804 22.1054 40.7348 22 41 22H47C47.2652 22 47.5196 22.1054 47.7071 22.2929C47.8946 22.4804 48 22.7348 48 23C48 23.2652 47.8946 23.5196 47.7071 23.7071C47.5196 23.8946 47.2652 24 47 24Z" fill="#39373A"/>
</svg>
