<svg width="53" height="53" viewBox="0 0 53 53" fill="none" xmlns="http://www.w3.org/2000/svg">
<path d="M46.2656 5.875H42.8281V4.15625C42.8281 3.24457 42.466 2.37023 41.8213 1.72557C41.1766 1.08091 40.3023 0.71875 39.3906 0.71875C38.4789 0.71875 37.6046 1.08091 36.9599 1.72557C36.3153 2.37023 35.9531 3.24457 35.9531 4.15625V5.875H29.0781V4.15625C29.0781 3.24457 28.716 2.37023 28.0713 1.72557C27.4266 1.08091 26.5523 0.71875 25.6406 0.71875C24.7289 0.71875 23.8546 1.08091 23.2099 1.72557C22.5653 2.37023 22.2031 3.24457 22.2031 4.15625V5.875H15.3281V4.15625C15.3281 3.24457 14.966 2.37023 14.3213 1.72557C13.6766 1.08091 12.8023 0.71875 11.8906 0.71875C10.9789 0.71875 10.1046 1.08091 9.45995 1.72557C8.81529 2.37023 8.45312 3.24457 8.45312 4.15625V5.875H5.01562C3.87644 5.87636 2.78431 6.32951 1.97878 7.13503C1.17326 7.94056 0.720115 9.03269 0.71875 10.1719V46.2656C0.720115 47.4048 1.17326 48.4969 1.97878 49.3025C2.78431 50.108 3.87644 50.5611 5.01562 50.5625H30.7969C31.0248 50.5625 31.2434 50.472 31.4045 50.3108C31.5657 50.1496 31.6562 49.931 31.6562 49.7031C31.6562 49.4752 31.5657 49.2566 31.4045 49.0955C31.2434 48.9343 31.0248 48.8438 30.7969 48.8438H5.01562C4.33186 48.8438 3.67611 48.5721 3.19262 48.0886C2.70912 47.6051 2.4375 46.9494 2.4375 46.2656V17.9062H48.8438V29.9375C48.8438 30.1654 48.9343 30.384 49.0955 30.5452C49.2566 30.7063 49.4752 30.7969 49.7031 30.7969C49.931 30.7969 50.1496 30.7063 50.3108 30.5452C50.472 30.384 50.5625 30.1654 50.5625 29.9375V10.1719C50.5611 9.03269 50.108 7.94056 49.3025 7.13503C48.4969 6.32951 47.4048 5.87636 46.2656 5.875ZM37.6719 4.15625C37.6719 3.70041 37.853 3.26324 38.1753 2.94091C38.4976 2.61858 38.9348 2.4375 39.3906 2.4375C39.8465 2.4375 40.2836 2.61858 40.606 2.94091C40.9283 3.26324 41.1094 3.70041 41.1094 4.15625V9.3125C41.1094 9.76834 40.9283 10.2055 40.606 10.5278C40.2836 10.8502 39.8465 11.0312 39.3906 11.0312C38.9348 11.0312 38.4976 10.8502 38.1753 10.5278C37.853 10.2055 37.6719 9.76834 37.6719 9.3125V4.15625ZM23.9219 4.15625C23.9219 3.70041 24.103 3.26324 24.4253 2.94091C24.7476 2.61858 25.1848 2.4375 25.6406 2.4375C26.0965 2.4375 26.5336 2.61858 26.856 2.94091C27.1783 3.26324 27.3594 3.70041 27.3594 4.15625V9.3125C27.3594 9.76834 27.1783 10.2055 26.856 10.5278C26.5336 10.8502 26.0965 11.0312 25.6406 11.0312C25.1848 11.0312 24.7476 10.8502 24.4253 10.5278C24.103 10.2055 23.9219 9.76834 23.9219 9.3125V4.15625ZM10.1719 4.15625C10.1719 3.70041 10.353 3.26324 10.6753 2.94091C10.9976 2.61858 11.4348 2.4375 11.8906 2.4375C12.3465 2.4375 12.7836 2.61858 13.106 2.94091C13.4283 3.26324 13.6094 3.70041 13.6094 4.15625V9.3125C13.6094 9.76834 13.4283 10.2055 13.106 10.5278C12.7836 10.8502 12.3465 11.0312 11.8906 11.0312C11.4348 11.0312 10.9976 10.8502 10.6753 10.5278C10.353 10.2055 10.1719 9.76834 10.1719 9.3125V4.15625ZM2.4375 16.1875V10.1719C2.4375 9.48811 2.70912 8.83236 3.19262 8.34887C3.67611 7.86537 4.33186 7.59375 5.01562 7.59375H8.45312V9.3125C8.45312 10.2242 8.81529 11.0985 9.45995 11.7432C10.1046 12.3878 10.9789 12.75 11.8906 12.75C12.8023 12.75 13.6766 12.3878 14.3213 11.7432C14.966 11.0985 15.3281 10.2242 15.3281 9.3125V7.59375H22.2031V9.3125C22.2031 10.2242 22.5653 11.0985 23.2099 11.7432C23.8546 12.3878 24.7289 12.75 25.6406 12.75C26.5523 12.75 27.4266 12.3878 28.0713 11.7432C28.716 11.0985 29.0781 10.2242 29.0781 9.3125V7.59375H35.9531V9.3125C35.9531 10.2242 36.3153 11.0985 36.9599 11.7432C37.6046 12.3878 38.4789 12.75 39.3906 12.75C40.3023 12.75 41.1766 12.3878 41.8213 11.7432C42.466 11.0985 42.8281 10.2242 42.8281 9.3125V7.59375H46.2656C46.9494 7.59375 47.6051 7.86537 48.0886 8.34887C48.5721 8.83236 48.8438 9.48811 48.8438 10.1719V16.1875H2.4375Z" fill="#39373A"/>
<path d="M51.4218 34.2342C51.6498 34.2342 51.8684 34.1437 52.0295 33.9825C52.1907 33.8213 52.2812 33.6028 52.2812 33.3748C52.2812 33.1469 52.1907 32.9283 52.0295 32.7672C51.8684 32.606 51.6498 32.5155 51.4218 32.5155H47.9843C47.7564 32.5155 47.5378 32.606 47.3767 32.7672C47.2155 32.9283 47.125 33.1469 47.125 33.3748V36.8123C47.125 37.0403 47.2155 37.2588 47.3767 37.42C47.5378 37.5812 47.7564 37.6717 47.9843 37.6717C48.2123 37.6717 48.4309 37.5812 48.592 37.42C48.7532 37.2588 48.8437 37.0403 48.8437 36.8123V35.6891C50.1348 37.5385 50.7204 39.7894 50.4944 42.0335C50.2683 44.2777 49.2454 46.3665 47.6114 47.9212C45.9773 49.4759 43.8402 50.3935 41.5876 50.5076C39.335 50.6218 37.116 49.9249 35.3332 48.5434C33.5503 47.1618 32.3215 45.1871 31.8697 42.9774C31.4179 40.7676 31.773 38.469 32.8705 36.4986C33.9681 34.5281 35.7354 33.0163 37.852 32.2371C39.9687 31.4579 42.2945 31.4631 44.4076 32.2516C44.6213 32.3314 44.8579 32.323 45.0654 32.2283C45.2729 32.1337 45.4343 31.9604 45.5141 31.7468C45.5938 31.5331 45.5855 31.2965 45.4908 31.089C45.3961 30.8815 45.2229 30.7201 45.0092 30.6403C42.4793 29.6928 39.6919 29.6928 37.162 30.6403C34.632 31.5878 32.5304 33.4187 31.2452 35.795C29.96 38.1712 29.5781 40.9323 30.17 43.5682C30.7619 46.2041 32.2877 48.5368 34.4654 50.1354C36.6432 51.734 39.3259 52.4906 42.018 52.2654C44.7102 52.0403 47.2299 50.8485 49.1118 48.9103C50.9938 46.9721 52.1108 44.4184 52.2566 41.7208C52.4024 39.0232 51.5671 36.364 49.9051 34.2342H51.4218Z" fill="#39373A"/>
<path d="M41.9687 38.6894V34.2344C41.9687 34.0065 41.8782 33.7879 41.717 33.6267C41.5559 33.4655 41.3373 33.375 41.1094 33.375C40.8815 33.375 40.6629 33.4655 40.5017 33.6267C40.3405 33.7879 40.25 34.0065 40.25 34.2344V38.6894C39.8906 38.8178 39.5641 39.0244 39.2942 39.2942C39.0244 39.5641 38.8178 39.8906 38.6894 40.25H35.9531C35.7252 40.25 35.5066 40.3405 35.3455 40.5017C35.1843 40.6629 35.0938 40.8815 35.0938 41.1094C35.0938 41.3373 35.1843 41.5559 35.3455 41.717C35.5066 41.8782 35.7252 41.9687 35.9531 41.9687H38.6894C38.8336 42.3791 39.0794 42.7461 39.404 43.0356C39.7286 43.3251 40.1213 43.5275 40.5453 43.624C40.9694 43.7205 41.411 43.7079 41.8289 43.5874C42.2468 43.4668 42.6272 43.2423 42.9348 42.9348C43.2423 42.6272 43.4668 42.2468 43.5874 41.8289C43.7079 41.411 43.7205 40.9694 43.624 40.5453C43.5275 40.1213 43.3251 39.7286 43.0356 39.404C42.7461 39.0794 42.3791 38.8336 41.9687 38.6894ZM41.1094 41.9687C40.9394 41.9687 40.7733 41.9183 40.6319 41.8239C40.4906 41.7295 40.3805 41.5953 40.3154 41.4382C40.2504 41.2812 40.2334 41.1084 40.2665 40.9417C40.2997 40.775 40.3815 40.6219 40.5017 40.5017C40.6219 40.3815 40.775 40.2997 40.9417 40.2665C41.1084 40.2334 41.2812 40.2504 41.4382 40.3154C41.5953 40.3805 41.7295 40.4906 41.8239 40.6319C41.9183 40.7733 41.9687 40.9394 41.9687 41.1094C41.9687 41.3373 41.8782 41.5559 41.717 41.717C41.5559 41.8782 41.3373 41.9687 41.1094 41.9687Z" fill="#39373A"/>
<path d="M22.2031 27.3594H18.7656C18.3098 27.3594 17.8726 27.1783 17.5503 26.856C17.228 26.5336 17.0469 26.0965 17.0469 25.6406V23.0625C17.0469 22.6067 17.228 22.1695 17.5503 21.8472C17.8726 21.5248 18.3098 21.3438 18.7656 21.3438H22.2031C22.659 21.3438 23.0961 21.5248 23.4185 21.8472C23.7408 22.1695 23.9219 22.6067 23.9219 23.0625V25.6406C23.9219 26.0965 23.7408 26.5336 23.4185 26.856C23.0961 27.1783 22.659 27.3594 22.2031 27.3594ZM18.7656 23.0625V25.6406H22.2031V23.0625H18.7656Z" fill="#39373A"/>
<path d="M32.5156 27.3594H29.0781C28.6223 27.3594 28.1851 27.1783 27.8628 26.856C27.5405 26.5336 27.3594 26.0965 27.3594 25.6406V23.0625C27.3594 22.6067 27.5405 22.1695 27.8628 21.8472C28.1851 21.5248 28.6223 21.3438 29.0781 21.3438H32.5156C32.9715 21.3438 33.4086 21.5248 33.731 21.8472C34.0533 22.1695 34.2344 22.6067 34.2344 23.0625V25.6406C34.2344 26.0965 34.0533 26.5336 33.731 26.856C33.4086 27.1783 32.9715 27.3594 32.5156 27.3594ZM29.0781 23.0625V25.6406H32.5156V23.0625H29.0781Z" fill="#39373A"/>
<path d="M11.8906 27.3594H8.45312C7.99728 27.3594 7.56011 27.1783 7.23779 26.856C6.91546 26.5336 6.73438 26.0965 6.73438 25.6406V23.0625C6.73438 22.6067 6.91546 22.1695 7.23779 21.8472C7.56011 21.5248 7.99728 21.3438 8.45312 21.3438H11.8906C12.3465 21.3438 12.7836 21.5248 13.106 21.8472C13.4283 22.1695 13.6094 22.6067 13.6094 23.0625V25.6406C13.6094 26.0965 13.4283 26.5336 13.106 26.856C12.7836 27.1783 12.3465 27.3594 11.8906 27.3594ZM8.45312 23.0625V25.6406H11.8906V23.0625H8.45312Z" fill="#39373A"/>
<path d="M42.8281 27.3594H39.3906C38.9348 27.3594 38.4976 27.1783 38.1753 26.856C37.853 26.5336 37.6719 26.0965 37.6719 25.6406V23.0625C37.6719 22.6067 37.853 22.1695 38.1753 21.8472C38.4976 21.5248 38.9348 21.3438 39.3906 21.3438H42.8281C43.284 21.3438 43.7211 21.5248 44.0435 21.8472C44.3658 22.1695 44.5469 22.6067 44.5469 23.0625V25.6406C44.5469 26.0965 44.3658 26.5336 44.0435 26.856C43.7211 27.1783 43.284 27.3594 42.8281 27.3594ZM39.3906 23.0625V25.6406H42.8281V23.0625H39.3906Z" fill="#39373A"/>
<path d="M22.2031 36.8125H18.7656C18.3098 36.8125 17.8726 36.6314 17.5503 36.3091C17.228 35.9868 17.0469 35.5496 17.0469 35.0938V32.5156C17.0469 32.0598 17.228 31.6226 17.5503 31.3003C17.8726 30.978 18.3098 30.7969 18.7656 30.7969H22.2031C22.659 30.7969 23.0961 30.978 23.4185 31.3003C23.7408 31.6226 23.9219 32.0598 23.9219 32.5156V35.0938C23.9219 35.5496 23.7408 35.9868 23.4185 36.3091C23.0961 36.6314 22.659 36.8125 22.2031 36.8125ZM18.7656 32.5156V35.0938H22.2031V32.5156H18.7656Z" fill="#39373A"/>
<path d="M29.0781 36.8125C28.6223 36.8125 28.1851 36.6314 27.8628 36.3091C27.5405 35.9868 27.3594 35.5496 27.3594 35.0938V32.5156C27.3594 32.0598 27.5405 31.6226 27.8628 31.3003C28.1851 30.978 28.6223 30.7969 29.0781 30.7969H31.6562C31.8842 30.7969 32.1028 30.8874 32.2639 31.0486C32.4251 31.2097 32.5156 31.4283 32.5156 31.6562C32.5156 31.8842 32.4251 32.1028 32.2639 32.2639C32.1028 32.4251 31.8842 32.5156 31.6562 32.5156H29.0781V35.0938C29.306 35.0938 29.5246 35.1843 29.6858 35.3455C29.847 35.5066 29.9375 35.7252 29.9375 35.9531C29.9375 36.181 29.847 36.3996 29.6858 36.5608C29.5246 36.722 29.306 36.8125 29.0781 36.8125Z" fill="#39373A"/>
<path d="M11.8906 36.8125H8.45312C7.99728 36.8125 7.56011 36.6314 7.23779 36.3091C6.91546 35.9868 6.73438 35.5496 6.73438 35.0938V32.5156C6.73438 32.0598 6.91546 31.6226 7.23779 31.3003C7.56011 30.978 7.99728 30.7969 8.45312 30.7969H11.8906C12.3465 30.7969 12.7836 30.978 13.106 31.3003C13.4283 31.6226 13.6094 32.0598 13.6094 32.5156V35.0938C13.6094 35.5496 13.4283 35.9868 13.106 36.3091C12.7836 36.6314 12.3465 36.8125 11.8906 36.8125ZM8.45312 32.5156V35.0938H11.8906V32.5156H8.45312Z" fill="#39373A"/>
<path d="M22.2031 46.2656H18.7656C18.3098 46.2656 17.8726 46.0845 17.5503 45.7622C17.228 45.4399 17.0469 45.0027 17.0469 44.5469V41.9688C17.0469 41.5129 17.228 41.0757 17.5503 40.7534C17.8726 40.4311 18.3098 40.25 18.7656 40.25H22.2031C22.659 40.25 23.0961 40.4311 23.4185 40.7534C23.7408 41.0757 23.9219 41.5129 23.9219 41.9688V44.5469C23.9219 45.0027 23.7408 45.4399 23.4185 45.7622C23.0961 46.0845 22.659 46.2656 22.2031 46.2656ZM18.7656 41.9688V44.5469H22.2031V41.9688H18.7656Z" fill="#39373A"/>
<path d="M11.8906 46.2656H8.45312C7.99728 46.2656 7.56011 46.0845 7.23779 45.7622C6.91546 45.4399 6.73438 45.0027 6.73438 44.5469V41.9688C6.73438 41.5129 6.91546 41.0757 7.23779 40.7534C7.56011 40.4311 7.99728 40.25 8.45312 40.25H11.8906C12.3465 40.25 12.7836 40.4311 13.106 40.7534C13.4283 41.0757 13.6094 41.5129 13.6094 41.9688V44.5469C13.6094 45.0027 13.4283 45.4399 13.106 45.7622C12.7836 46.0845 12.3465 46.2656 11.8906 46.2656ZM8.45312 41.9688V44.5469H11.8906V41.9688H8.45312Z" fill="#39373A"/>
</svg>
